<?xml version="1.0" standalone="no"?>
<!DOCTYPE svg PUBLIC "-//W3C//DTD SVG 20010904//EN"
 "http://www.w3.org/TR/2001/REC-SVG-20010904/DTD/svg10.dtd">
<svg version="1.0" xmlns="http://www.w3.org/2000/svg"
 width="360.000000pt" height="360.000000pt" viewBox="0 0 360.000000 360.000000"
 preserveAspectRatio="xMidYMid meet">

<g transform="translate(0.000000,360.000000) scale(0.100000,-0.100000)"
fill="#000000" stroke="none">
<path d="M1281 3260 c-98 -21 -174 -96 -280 -276 -226 -387 -236 -923 -24
-1344 212 -421 582 -700 1048 -792 155 -30 396 -30 545 1 185 39 348 107 504
210 151 99 191 167 189 321 -2 185 -92 413 -267 680 -79 120 -221 305 -264
343 -20 19 -21 18 -46 -22 -14 -22 -26 -46 -26 -52 0 -6 22 -37 48 -68 27 -31
81 -99 120 -152 302 -410 415 -801 259 -903 -128 -84 -438 11 -777 239 l-137
92 -21 -24 c-46 -52 -53 -46 -369 270 -261 261 -293 296 -293 324 0 22 7 38
23 49 l23 18 -81 120 c-158 238 -249 435 -274 597 -21 128 7 205 89 247 40 21
55 23 125 18 202 -13 480 -148 786 -382 52 -40 104 -82 114 -94 23 -26 29 -25
82 6 53 31 56 27 -77 134 -191 155 -432 304 -600 371 -150 59 -325 88 -419 69z"/>
<path d="M347 672 c-14 -16 -17 -43 -17 -164 0 -128 2 -147 18 -161 17 -16 98
-17 965 -17 l946 0 15 22 c13 18 16 52 16 160 0 125 -2 140 -20 158 -20 20
-33 20 -963 20 -902 0 -945 -1 -960 -18z"/>
</g>
</svg>
